<svg width="205" height="40" viewBox="0 0 205 40" fill="none" xmlns="http://www.w3.org/2000/svg">
<path d="M103.652 4.48022C98.9269 4.48022 94.7941 6.96494 92.4694 10.6954V4.4848H83.038L81.6207 4.48022C77.0879 4.48022 73.0923 6.75921 70.7218 10.2314V4.49166H62.6345V30.7286H70.7218V24.9865C73.0923 28.4633 77.0879 30.7377 81.6207 30.7377H92.4694V24.5271C94.7941 28.2576 98.9269 30.7377 103.652 30.7377H117.979V23.6356H104.219L104.23 23.647C102.232 23.647 100.465 22.6664 99.3703 21.1646H117.979V14.0625H99.3909C100.486 12.5721 102.246 11.6029 104.23 11.6029L105.144 11.5869H117.979V4.4848H105.071L103.649 4.48022M82.1854 23.6333L82.2014 23.6447C78.8777 23.6447 76.1827 20.9475 76.1827 17.6261C76.1827 14.3048 78.88 11.6029 82.2014 11.6029L83.1111 11.5869H91.9551C91.0224 13.3927 90.4875 15.4317 90.4875 17.6101C90.4875 19.7885 91.0224 21.8275 91.9596 23.6333H82.1876H82.1854Z" fill="#2347A3"/>
<path d="M194.733 4.93061L194.242 4.81175C192.26 4.34315 190.196 4.09399 188.073 4.09399C185.949 4.09399 183.823 4.3523 181.814 4.83461L181.46 4.92376C178.28 5.76495 175.571 7.7582 173.816 10.4372V4.48259H159.488C153.335 4.48259 148.175 8.68626 146.738 14.3894C145.297 8.68854 140.141 4.48259 133.985 4.48259L132.563 4.48716H119.655V11.5893H132.49L133.404 11.6007C136.728 11.6007 139.423 14.3003 139.423 17.6239C139.423 20.9475 136.726 23.6311 133.404 23.6311H133.42H119.657V23.7957H119.653V40H127.74V30.7378H133.987C140.145 30.7378 145.3 26.5319 146.74 20.8264C148.178 26.5319 153.337 30.7378 159.49 30.7378L160.208 30.7332H173.818V24.7946C175.574 27.4713 178.282 29.4692 181.462 30.3081L181.816 30.3972C183.825 30.8818 185.919 31.1378 188.075 31.1378C190.23 31.1378 192.265 30.8887 194.244 30.4201L194.736 30.3012C200.345 28.7994 204.473 23.7134 204.473 17.6285V17.6102C204.473 11.5207 200.343 6.4347 194.736 4.9329M173.144 23.6288H160.055L160.071 23.6357C156.747 23.6357 154.052 20.943 154.052 17.6171C154.052 14.2912 156.75 11.5984 160.071 11.5984L160.981 11.587H173.151C172.218 13.3882 171.683 15.4318 171.683 17.6056V17.6239C171.683 19.7909 172.213 21.8276 173.144 23.6288ZM196.743 17.6445C196.743 20.4104 194.875 22.7373 192.336 23.446C192.064 23.5237 191.782 23.5648 191.501 23.6151C190.39 23.8117 189.247 23.9146 188.079 23.9146C186.911 23.9146 185.782 23.8117 184.676 23.6151L183.8 23.4391C181.27 22.7282 179.409 20.4035 179.409 17.6468V17.6285C179.409 14.8626 181.279 12.5311 183.819 11.8247C184.088 11.747 184.372 11.7059 184.648 11.6556C185.762 11.459 186.902 11.3561 188.07 11.3561C189.238 11.3561 190.372 11.4567 191.478 11.651L192.354 11.827C194.882 12.5425 196.74 14.8695 196.74 17.6285V17.6468L196.743 17.6445Z" fill="#2347A3"/>
<path d="M36.8981 0C33.2339 0 29.8486 1.15207 27.0598 3.09961C24.2665 1.15207 20.8789 0 17.217 0C7.71016 0 0 7.70559 0 17.217C0 26.7284 7.71016 34.4317 17.217 34.4317C20.8789 34.4317 24.2665 33.2842 27.0598 31.3344C29.8486 33.2819 33.2339 34.4317 36.8981 34.4317C46.4049 34.4317 54.1151 26.7261 54.1151 17.217C54.1151 7.70787 46.4049 0 36.8981 0Z" fill="white"/>
<path d="M53.1253 11.452L27.229 31.4623C29.9834 33.3367 33.3094 34.4362 36.8981 34.4362C46.405 34.4362 54.1151 26.726 54.1151 17.2192C54.1151 15.194 53.7608 13.2556 53.1231 11.452H53.1253Z" fill="#EB1923"/>
<path d="M27.062 6.86214L29.6016 5.25747L37.8923 0.0297484C37.5609 0.0137474 37.2317 0.00231934 36.9003 0.00231934C35.8397 0.00231934 34.8065 0.0983229 33.8007 0.278905L28.9753 4.64258L27.062 6.37526L21.08 10.4121L1.30054 23.7797C1.5817 24.4586 1.904 25.1215 2.26516 25.7546L20.5474 11.8247L27.062 6.86214Z" fill="#EB1923"/>
<path d="M17.2192 0C7.71235 0 0.00219727 7.71016 0.00219727 17.217C0.00219727 19.2422 0.356503 21.1806 0.996539 22.9865L26.8837 2.96932C24.1293 1.09492 20.8034 0 17.2192 0Z" fill="#EB1923"/>
<path d="M27.0621 13.9254L32.8933 10.0806L45.0677 2.055C44.3522 1.67098 43.607 1.33267 42.8367 1.05151L32.4612 9.19598L27.0644 13.4362L19.7199 18.3531L4.35449 28.6531C4.84138 29.1994 5.36484 29.7183 5.91344 30.1983L19.8342 19.4891L27.0644 13.9277L27.0621 13.9254Z" fill="#EB1923"/>
<path d="M27.0621 17.4615L33.8968 12.9127L47.6462 3.76705C47.0518 3.29388 46.4278 2.85728 45.7763 2.46411L33.6019 11.8978L27.0644 16.9678L20.2275 21.5189L6.48267 30.6691C7.0747 31.1446 7.69645 31.5789 8.3502 31.9721L20.5246 22.5338L27.0667 17.4593L27.0621 17.4615Z" fill="#EB1923"/>
<path d="M27.0622 20.9909L34.3998 16.074L49.7698 5.78315C49.2829 5.23683 48.7641 4.71794 48.2109 4.23792L34.2901 14.9402L27.0645 20.4994L21.2265 24.3488L9.05664 32.3767C9.77211 32.7653 10.5173 33.099 11.2876 33.3824L21.6631 25.2311L27.0645 20.9909H27.0622Z" fill="#EB1923"/>
<path d="M27.0621 10.396L31.46 7.53867L41.9155 0.747429C41.0354 0.477699 40.1257 0.278831 39.1908 0.155396L30.9229 6.79806L27.0575 9.90223L19.8548 14.7551L2.62183 26.3603C3.01042 26.9752 3.4333 27.5627 3.89047 28.1204L19.7222 16.0123L27.0598 10.4005L27.0621 10.396Z" fill="#EB1923"/>
<path d="M27.0622 24.5293L34.2603 19.6811L51.4933 8.0827C51.1093 7.4678 50.6818 6.87577 50.2246 6.32031L34.3929 18.4239L27.0599 24.0356L22.6574 26.8929L12.2019 33.6887C13.0774 33.9539 13.9871 34.1573 14.9221 34.2808L23.1922 27.6358L27.0599 24.5271L27.0622 24.5293Z" fill="#EB1923"/>
<path d="M52.8191 10.6566C52.538 9.97772 52.2157 9.31482 51.8545 8.68164L33.5769 22.6002L27.0622 27.5627L24.5112 29.172L16.2205 34.4043C16.5519 34.4225 16.8856 34.434 17.2194 34.434C18.2846 34.434 19.3246 34.338 20.335 34.1528L25.1444 29.7937L27.0622 28.0565L33.0443 24.0151L52.8191 10.6543V10.6566Z" fill="#EB1923"/>
</svg>
