<svg width="64" height="32" viewBox="0 0 64 32" fill="none" xmlns="http://www.w3.org/2000/svg">
<rect width="32" height="32" rx="16" fill="#55524B"/>
<path d="M20 8H12C9.79086 8 8 9.79086 8 12V20C8 22.2091 9.79086 24 12 24H20C22.2091 24 24 22.2091 24 20V12C24 9.79086 22.2091 8 20 8Z" stroke="#F4F4F4" stroke-width="2" stroke-linecap="round" stroke-linejoin="round"/>
<path d="M19.2 15.496C19.2987 16.1618 19.185 16.8418 18.875 17.4392C18.565 18.0366 18.0745 18.5211 17.4733 18.8237C16.8721 19.1263 16.1907 19.2317 15.5262 19.1247C14.8617 19.0178 14.2478 18.7041 13.7719 18.2281C13.2959 17.7522 12.9822 17.1383 12.8752 16.4738C12.7683 15.8092 12.8736 15.1279 13.1762 14.5267C13.4789 13.9255 13.9633 13.435 14.5608 13.125C15.1582 12.815 15.8382 12.7013 16.504 12.8C17.1831 12.9007 17.8119 13.2172 18.2973 13.7026C18.7828 14.1881 19.0993 14.8169 19.2 15.496Z" stroke="#F4F4F4" stroke-width="2" stroke-linecap="round" stroke-linejoin="round"/>
<path d="M20.4 11.6H20.408" stroke="#F4F4F4" stroke-width="2" stroke-linecap="round" stroke-linejoin="round"/>
<rect x="32" width="32" height="32" rx="16" fill="#55524B"/>
<path d="M56.432 11.536C56.337 11.1563 56.1435 10.8084 55.871 10.5275C55.5985 10.2466 55.2566 10.0425 54.88 9.93598C53.504 9.59998 48 9.59998 48 9.59998C48 9.59998 42.496 9.59998 41.12 9.96798C40.7434 10.0745 40.4016 10.2786 40.1291 10.5595C39.8566 10.8404 39.6631 11.1883 39.568 11.568C39.3162 12.9644 39.193 14.381 39.2 15.8C39.1911 17.2296 39.3143 18.657 39.568 20.064C39.6728 20.4319 39.8707 20.7665 40.1426 21.0356C40.4144 21.3046 40.7511 21.499 41.12 21.6C42.496 21.968 48 21.968 48 21.968C48 21.968 53.504 21.968 54.88 21.6C55.2566 21.4934 55.5985 21.2894 55.871 21.0085C56.1435 20.7275 56.337 20.3796 56.432 20C56.6819 18.614 56.8051 17.2082 56.8 15.8C56.809 14.3703 56.6858 12.9429 56.432 11.536Z" fill="#F4F4F4"/>
<path d="M46.2 18.416L50.8 15.8L46.2 13.184V18.416Z" fill="#55524B" stroke="#55524B" stroke-width="2" stroke-linecap="round" stroke-linejoin="round"/>
</svg>
