<svg xmlns="http://www.w3.org/2000/svg" width="517.40533mm" height="400mm" viewBox="0 0 517.40534 400"><defs><clipPath id="a" clipPathUnits="userSpaceOnUse"><path d="M1526 837h560V277h-560z"/></clipPath><clipPath id="b" clipPathUnits="userSpaceOnUse"><path d="M21 721h561V161H21Z"/></clipPath><clipPath id="c" clipPathUnits="userSpaceOnUse"><path d="M861 884h281V603H861Z"/></clipPath><clipPath id="d" clipPathUnits="userSpaceOnUse"><path d="M2427 440h311V130h-311z"/></clipPath><clipPath id="e" clipPathUnits="userSpaceOnUse"><path d="M1351 612h474V138h-474z"/></clipPath><clipPath id="f" clipPathUnits="userSpaceOnUse"><path d="M1301 397h259V138h-259z"/></clipPath><clipPath id="g" clipPathUnits="userSpaceOnUse"><path d="M1212 1092h542V550h-542z"/></clipPath></defs><path d="M245.176 180.61c-31.454-28.225-58.929-45.364-98.061-62.046 23.403-24.815 44.349-43.639 77.86-63.74-87.409-22.798-176.2-22.069-263.286 6.084l-8.337 21.402c-33.93 0-78.074 4.831-124.317 18.52-7.398 28.028-9.709 51.808-9.709 51.808s-42.53 7.569-83.42 22.747c10.214 63.41 41.588 117.868 70.65 154.723 3.846-1.488 45.632-17.434 45.632-17.434 37.125 61.764 96.349 105.041 187.056 119.71-3.934-41.01 3.58-82.311 67.261-149.112 37.382 5.883 78.11 16.192 113.062 26.61-3.515-6.226-18.28-32.348-20.47-36.7-2.388-4.725-2.331-7.992 1.4-11.622 9.323-9.225 36.956-35.51 41.642-39.94-18.965-8.134-38.883-15.537-38.883-15.537s23.665-15.142 41.92-25.473" style="fill:#cbbfa7;fill-opacity:1;fill-rule:nonzero;stroke:none;stroke-width:1.60025" transform="matrix(1.01597 0 0 1.01597 268.313 -39.292)"/><path d="M198.603 157.18c10.42 6.825 20.202 14.124 29.226 21.925a726.613 726.613 0 0 0-46.926 29.974c14.518 4.863 29.142 10.275 42.898 16.009 0 0-31.14 29.425-34.893 34.093-3.243 4.049-4.275 8.224-2.06 12.689 2.581 5.173 12.312 21.787 12.312 21.787-34.595-9.806-66.516-16.7-95.82-21.06-45.622 44.945-78.648 96.537-74.441 147.551-83.643-16.048-140.961-61.268-172.38-119.725-13.594 4.722-28.424 10.291-46.608 17.506-53.427-70.004-62.868-135.59-62.868-135.59 26.876-8.68 54.742-15.362 81.52-20.334 1.272-17.61 4.168-35.308 8.741-52.897 38.475-11.312 80.549-16.703 123.088-16.632a510.85 510.85 0 0 1 8.794-23.178c64.446-20.552 149.423-28.362 230.27-9.767-23.69 15.484-47.4 37.702-69.574 63.194a407.141 407.141 0 0 1 20.087 8.236c8.04-7.586 21.446-10.017 33.248-4.373 8.142 3.92 16.622 14.213 15.386 30.592" style="fill:#550709;fill-opacity:1;fill-rule:nonzero;stroke:none;stroke-width:1.60025" transform="matrix(1.01597 0 0 1.01597 268.313 -39.292)"/><path d="M-44.218 133.325c-27.582-5.212-61.788-2.25-100.06 10.384 28.587-18.987 62.99-31.01 97.541-37.65-36.263.468-71.96 5.008-104.723 13.96-3.007 13.523-5.013 26.7-6.124 39.516a755.726 755.726 0 0 1 47.362-6.39c17.763-8.351 40.844-16.849 66.004-19.82" style="fill:#ed1c24;fill-opacity:1;fill-rule:nonzero;stroke:none;stroke-width:1.60025" transform="matrix(1.01597 0 0 1.01597 268.313 -39.292)"/><path d="M-20.14 132.65h11.044v16.466L4.876 132.65h13.729l-15.7 16.919 17.654 26.033H6.819l-11.392-18.06-4.523 4.83v13.23H-20.14ZM23.76 132.65h33.815v8.969H34.813v7.497h20.793v8.678H34.813v8.187h23.352v9.62H23.76ZM75.65 152.618h7.426c3.434 0 5.943-1.434 5.943-5.353 0-4.024-2.555-5.645-5.943-5.645h-7.425Zm-11.057-19.97h20.138c7.903 0 15.335 3.69 15.335 13.819 0 10.675-5.998 14.813-15.335 14.813h-9.08v14.321H64.593ZM133.475 147.99c-.598-4.357-3.925-6.611-8.57-6.611-7.128 0-9.863 6.378-9.863 12.75 0 6.368 2.735 12.742 9.863 12.742 5.173 0 8.142-3.015 8.57-7.912h11.047c-.608 11.055-8.614 17.55-19.363 17.55-12.852 0-21.173-9.93-21.173-22.38 0-12.453 8.321-22.384 21.173-22.384 9.134 0 19.06 5.894 19.363 16.246zM169.72 166.87c7.12 0 9.855-6.372 9.855-12.74 0-6.373-2.735-12.751-9.854-12.751-7.145 0-9.874 6.378-9.874 12.75 0 6.37 2.729 12.741 9.874 12.741m0-35.106c13.368 0 20.92 9.912 20.92 22.365 0 12.45-7.552 22.38-20.92 22.38-13.38 0-20.928-9.93-20.928-22.38 0-12.453 7.548-22.365 20.928-22.365" style="fill:#fff;fill-opacity:1;fill-rule:nonzero;stroke:none;stroke-width:1.60025" transform="matrix(1.01597 0 0 1.01597 268.313 -39.292)"/><path d="M-19.57 384.459c9.193-15.867 21.978-32.605 44.066-40.92-5.676-1.232-38.98 4.43-71.378 26.796 10.538-17.502 26.488-31.731 40.477-39.465-12.778 2.121-40.665 7.88-67.25 21.075 15.537-21.91 37.578-36.435 56.276-43.986-16.392 2.647-47.339 9.296-77.833 24.562 16.078-19.077 36.458-35.493 57.228-43.784-20.096 2.954-48 8.985-75.797 21.31 10.598-12.325 24.064-22.128 38.564-29.68-20.827 5.339-37.444 9.91-55.11 15.646 13.468 24.11 53.354 85.392 146.52 107.506 0-11.635 1.836-23.034 5.118-34.168-8.124 1.149-23.285 4.616-40.881 15.108" style="fill:#ed1c24;fill-opacity:1;fill-rule:nonzero;stroke:none;stroke-width:1.60025" transform="matrix(1.01597 0 0 1.01597 268.313 -39.292)"/><path d="M-28.268 124.431H84.75c8.153 0 14.967 2.97 19.032 8.275 21.296-26.596 42.033-48.961 63.94-65.79 0 0-88.027-17.717-189.309 13.614-9.663 18.806-19.182 55.661-25.805 97.452 6.447-.31 12.823-.527 19.124-.655zM2.15 253.918c-2.322 7.859-4.472 15.443-4.472 15.443-16.726 1.198-36.246 3.488-53.969 6.775-.462 30.371 1.697 58.035 7.546 78.002 31.044-16.914 51.484-26.087 51.484-26.087-2.688 23.13 2.119 56.427 13.452 75.484 0-47.744 30.757-91.42 66.177-129.487 0 0-22.463-2.266-67.96 10.565a365.488 365.488 0 0 1 6.42-15.723c-6.876-1.523-14.815-5.804-18.678-14.972" style="fill:#fff200;fill-opacity:1;fill-rule:nonzero;stroke:none;stroke-width:1.60025" transform="matrix(1.01597 0 0 1.01597 268.313 -39.292)"/><path d="M162.528 183.9c3.37 3.232 6.432 6.84 8.78 10.853-8.599-3.937-21.675-8.514-34.416-12.308-6.938 2.89-14.57 2.832-20.624.963a85.876 85.876 0 0 1 10.107 9.84c11.809 2.849 24.777 6.41 38.118 10.548 13.191-9.296 26.542-17.992 39.733-26.054-3.092-2.412-6.313-4.75-9.613-7.06-6.062 10.965-18.662 16.196-32.085 13.218" style="fill:#ed1c24;fill-opacity:1;fill-rule:nonzero;stroke:none;stroke-width:1.60025" transform="matrix(1.01597 0 0 1.01597 268.313 -39.292)"/><path d="M112.174 256.51c.24-5.189.777-9.55 1.631-14.41 4.911-.948 9.512-3.853 14.265-8.516-6.24 8.26-10.858 14.866-15.896 22.927m-3.992-31.858c-1.88-.326-5.36-1.034-5.379-1.034.978-1.38 1.98-2.798 2.985-4.21 2.824.541 3.613.67 5.898 1.159 1.634.344 2.138 1.451 1.41 2.691-.645 1.287-2.581 1.794-4.914 1.394m-52.484.6c-5.836 10.456-15.636 19.096-20.838 16.408-4.375-2.217-1.085-12.382 3.813-20.2 5.97-9.227 15.16-14.214 19.472-11.568 3.122 1.888 2.137 7.156-2.447 15.36m-163.383 43.423c.302-22.295 3.461-46.694 10.886-73.05.34-1.235.688-2.506 1.047-3.776 1.067 3.38 6.334 19.585 13.13 37.505-7.979 11.347-16.607 24.688-25.063 39.321m289.26-48.033c-11.87 7.97-24.083 17.79-24.083 17.79s6.023-11.834 12.605-22.037c0 0-10.909-3.793-21.797-7.152 0 0-6.788 7.405-12.75 14.772 4.222-8.604 3.808-17.535-7.802-20.64-7.21-1.978-15.137-3.887-29.293-6.735-9.454 12.309-18.905 27.322-18.905 27.322 7.472-14.847 6.582-27.135-3.138-32.44-9.776-5.303-25.86-5.7-41.256 5.21 1.72-2.921 3.45-5.866 5.195-8.788-28.984-2.43-58.216-2.95-89.302-1.392 0 0-5.625 6.385-11.039 12.883-1.184-4.413-3.067-11.98-3.067-11.98-17.869 1.363-37.347 3.557-56.876 6.896 12.22-13.272 31.121-25.741 51.683-33.776-44.396 2.884-82.88 9.829-82.88 9.829-14.276 22.315-24.433 46.391-29.498 71.164-3.463-9.636-10.34-33.49-5.41-48.34 4.306-12.963 18.454-20.187 18.438-20.168-36.066 7.315-71.027 17.699-71.027 17.699 9.978 44.226 30.282 80.93 52.984 112.408 8.34-3.071 16.678-6.102 25.035-9.114 6.253-37.25 16.015-68.604 33.752-91.476-6 28.158-8.025 55.17-5.73 82.619 19.29-5.721 33.705-9.136 49.31-12.528 0 0 6.743-11.69 10.94-17.9a1766.756 1766.756 0 0 1 6.416 14.433c14.1-2.595 27.844-4.522 27.844-4.522s-8.072-19.95-13.799-38.08c10.302-13.24 22.99-26.69 22.99-26.69-1.38 3.375-2.753 6.75-4.096 10.127-.019.019 7.934-.396 18.165-.577-7.693 17.787-13.034 36.198-17 54.383 0 0 12.367-1.397 23.018-2.411 5.865-20.661 11.296-36.29 18.971-52.044 3.821.072 7.713.181 11.517.285-17.972 24.585-17.65 45.934.062 50.723 17.715 4.812 36.296-3.63 50.607-24.327-6.05 11.205-12.04 23.388-12.04 23.388s10.265.251 20.398 1.067c0 0 5.333-10.404 10.483-18.902.706.056 1.426.17 2.117.261-1.651 9.838-1.623 19.496-1.615 19.496 0 0 16.12 1.38 35.041 4.319 2.016-3.173 4.08-6.388 6.116-9.582a2681.136 2681.136 0 0 0-3.821 9.947c4.716.797 9.398 1.629 14.104 2.466 3.364-3.34 6.144-5.353 10.978-9.695-2.287 3.998-3.642 7.376-4.073 11.077 9.962 2.034 14.446 3.089 24.444 5.267-.374-.623-7.031-8.682 3.28-21.357 5.312-6.476 14.709-15.955 24.22-24.903-10.353-4.318-20.443-8.275-20.416-8.275" style="fill:#f89c0e;fill-opacity:1;fill-rule:nonzero;stroke:none;stroke-width:1.60025" transform="matrix(1.01597 0 0 1.01597 268.313 -39.292)"/><path d="M-123.96 196.917c-6.977 30.31-8.627 58.016-6.994 82.907a500.46 500.46 0 0 1 18.087-4.975c-.349-24.55 2.778-51.774 11.055-81.33a749.44 749.44 0 0 0-22.148 3.398M57.242 226.706c-5.702 10.058-14.985 19.098-23.021 16.957-7.384-1.969-7.69-11.405-.052-23.387 7.837-12.272 18.589-17.842 25.127-14.755 5.486 2.594 3.347 11.723-2.054 21.185m11.907 6.553c14.393-21.62 16.292-37.58 1.319-42.118-18.337-5.57-39.5 5.575-51.658 25.833-13.234 22.059-7.713 35.693 5.01 38.994 14.819 3.849 33.206-4.47 45.33-22.709M116.441 222.671c-2.296 3.484-5.802 4.103-9.66 3.484a284.517 284.517 0 0 0-9.592-1.589c2.223-3.377 4.581-6.756 7.02-10.149 3.89.74 5.363 1.032 9.155 1.83 2.994.583 5.014 3.469 3.077 6.424m9.39-18.097c-5.347-1.45-16.411-4.025-26.39-6.006-14.662 19.35-25.979 38.45-34.668 56.636 4.664.18 9.29.421 13.837.727 3.218-6.264 6.804-12.599 10.742-19.094 2.431.309 4.878.613 7.342.957-1.387 6.612-2.053 13.166-2.402 19.39 4.85.473 9.621.965 14.366 1.58.358-6.68 1.011-13.69 2.427-20.804 5.59-.834 13.076-4.445 18.832-12.597 6.788-9.589 5.855-18.1-4.087-20.789M-87.267 164.042c-20.517 1.651-41.759 4.351-63.59 8.148-26.834 41.405-30.265 82.527-30.348 82.47 0 0-8.276-16.117-12.167-42.04-2.349-15.397.572-27.05 10.85-34.33-17.7 3.774-35.617 8.335-53.827 13.65 11.174 43.026 31.076 81.132 50.284 106.252a984.053 984.053 0 0 1 20.211-7.35c8.446-45.732 22.788-101.353 78.587-126.8M182.267 222.527c-12.006 8.245-23.163 16.883-33.432 25.761a291.187 291.187 0 0 1 16.895-31.749 460.875 460.875 0 0 0-16.444-5.373c-14.65 16.228-26.524 32.441-36.197 48.143 4.133.546 8.156 1.087 12.166 1.708 6.24-9.519 13.297-19.154 21.34-28.938-5.377 10.439-9.792 20.512-13.423 30.242 3.023.493 6.124 1.051 9.121 1.616 8.93-8.481 18.667-16.788 29.203-24.817-9.971 10.912-16.579 21.17-17.403 27.161 3.793.725 9.549 1.922 16.195 3.468-2.476-8.08-.183-13.31 5.996-20.206a357.235 357.235 0 0 1 20.678-21.146c-4.788-1.983-9.683-3.98-14.695-5.87M34.332 189.216c-17.907-1.415-36.655-1.922-55.588-1.634-2.821 5.995-5.378 11.602-7.649 17.446 6.121-.291 12.296-.325 18.305-.4-8.243 18.897-13.999 37.235-17.81 54.244 5.424-.58 10.904-1.305 16.301-1.745 4.494-16.591 10.707-34.181 19.549-52.515 5.911.072 12.095.18 17.844.488 2.796-5.3 5.803-10.472 9.048-15.884" style="fill:#fff;fill-opacity:1;fill-rule:nonzero;stroke:none;stroke-width:1.60025" transform="matrix(1.01597 0 0 1.01597 268.313 -39.292)"/><path d="M-23.836 187.455c-8.07.109-16.276.4-24.603.894 0 0-5.625 6.188-14.233 17.005-2.805-9.712-4.239-15.739-4.277-15.739a555.077 555.077 0 0 0-25.635 2.706s4.671 15.198 12.698 36.126c-9.067 12.778-19.057 28.156-28.631 45.276a598.882 598.882 0 0 1 21.85-5.12c4.376-7.658 9.138-15.141 14.006-22.24 2.44 5.867 5.004 11.855 7.792 17.921a782.6 782.6 0 0 1 21.082-3.43c-5.121-12.838-9.434-25.307-12.938-36.11 17.527-22.292 32.915-37.29 32.89-37.29" style="fill:#fff;fill-opacity:1;fill-rule:nonzero;stroke:none;stroke-width:1.60025" transform="matrix(1.01597 0 0 1.01597 268.313 -39.292)"/><path d="M-48.746 354.138C-17.7 337.224 2.74 328.051 2.74 328.051c-2.68 23.13 2.119 56.427 13.453 75.484 0 0-11.184-46.633-.835-88.82 0 0-38.79 14.757-53.892 21.126-2.885-18.151-3.584-39.499-2.544-62.227-5.078.74-10.187 1.58-15.21 2.522-.463 30.371 1.694 58.035 7.543 78.002M-47.392 177.982c6.446-.31 12.815-.527 19.125-.655v-52.896h13.658c6.097-19.54 12.91-37.124 20.104-51.234a395.329 395.329 0 0 0-27.081 7.334c-9.666 18.805-19.192 55.66-25.806 97.45" style="fill:#f89c0e;fill-opacity:1;fill-rule:nonzero;stroke:none;stroke-width:1.60025" transform="matrix(1.01597 0 0 1.01597 268.313 -39.292)"/></svg>